<svg version="1.1" id="Layer_1" xmlns="http://www.w3.org/2000/svg" xmlns:xlink="http://www.w3.org/1999/xlink" x="0px" y="0px"
	 width="100%" viewBox="0 0 1024 1024" enable-background="new 0 0 1024 1024" xml:space="preserve">
<path fill="#000000" opacity="1.000000" stroke="none" 
	d="
M676.000000,1025.000000 
	C450.666656,1025.000000 225.833328,1025.000000 1.000000,1025.000000 
	C1.000000,683.666687 1.000000,342.333344 1.000000,1.000000 
	C342.333344,1.000000 683.666687,1.000000 1025.000000,1.000000 
	C1025.000000,342.333344 1025.000000,683.666687 1025.000000,1025.000000 
	C908.833313,1025.000000 792.666687,1025.000000 676.000000,1025.000000 
M517.030884,516.959290 
	C517.030884,516.959290 517.138977,516.957092 516.941589,516.431946 
	C516.631897,516.236389 516.322205,516.040833 516.014099,515.978699 
	C516.014099,515.978699 516.147461,515.976440 515.947632,515.442383 
	C515.633667,515.242920 515.319641,515.043457 515.006226,514.992493 
	C515.006226,514.992493 515.154663,514.991699 514.953735,514.452637 
	C514.638428,514.250122 514.323181,514.047607 514.007996,513.991150 
	C514.007996,513.991150 514.154053,513.990723 513.952087,513.450195 
	C513.634827,513.248535 513.317566,513.046875 513.000305,512.999084 
	C513.000305,512.999084 513.154175,512.998596 512.954468,512.454651 
	C512.636597,512.251648 512.318787,512.048645 512.000305,512.000061 
	C512.000305,512.000061 512.154724,512.000061 511.957794,511.459747 
	C511.643951,511.256134 511.330078,511.052551 511.016968,510.977600 
	C511.016968,510.977600 511.145630,510.976074 510.921661,510.403961 
	C510.299988,509.895569 509.678314,509.387177 509.051666,508.981354 
	C509.051666,508.981354 509.154266,508.984863 508.958588,508.459442 
	C508.653412,508.260162 508.348236,508.060913 508.000580,507.933563 
	C508.000580,507.933563 508.076416,507.898499 507.816864,507.273560 
	C506.842804,506.903778 505.868713,506.533997 504.322266,505.793915 
	C497.577576,501.188568 490.832886,496.583221 483.734985,491.350555 
	C475.801056,487.361969 468.007660,483.053772 459.889648,479.483673 
	C453.123505,476.508057 445.976593,474.398254 439.002899,471.972412 
	C439.002899,471.972412 439.068787,471.957520 438.730896,471.306183 
	C435.581665,470.109100 432.470917,468.795837 429.275665,467.737793 
	C421.203857,465.064941 413.094086,462.506927 405.002106,459.971558 
	C405.002106,459.971558 405.070221,459.962189 404.724884,459.305145 
	C390.688538,453.943939 376.477936,448.961823 363.732452,440.226379 
	C363.732452,440.226379 363.432159,440.121796 363.147675,439.654449 
	C362.440857,439.096008 361.734039,438.537598 361.001221,438.000000 
	C361.001221,438.000000 361.021820,437.975067 360.844696,437.413086 
	C360.238800,436.941589 359.632904,436.470123 359.019287,435.980103 
	C359.019287,435.980103 359.000702,435.972717 358.764893,435.333099 
	C357.832581,434.189026 356.846985,433.083954 355.976532,431.894592 
	C349.624268,423.214661 349.460175,413.160004 350.051422,403.122345 
	C350.944885,387.953339 359.571960,376.396606 374.775635,373.204468 
	C384.333466,371.197754 394.402344,371.262207 404.249695,371.162537 
	C408.643860,371.118073 413.340363,372.312469 417.392181,374.096893 
	C422.849762,376.500549 427.817230,380.017090 433.134277,383.521240 
	C433.322388,383.818420 433.591888,383.979218 434.003540,384.725250 
	C436.972015,389.184723 439.940491,393.644196 442.989410,398.816620 
	C444.616760,405.563416 446.244110,412.310181 448.323151,419.818390 
	C476.185150,419.818390 504.047119,419.818390 532.529236,419.818390 
	C531.973145,415.127716 531.482605,410.989349 530.972046,405.986145 
	C529.854553,389.124115 525.195801,373.266235 517.072815,358.486206 
	C513.088745,351.237061 509.417633,343.635773 502.000000,339.000000 
	C502.000000,339.000000 502.036407,338.973602 501.961243,338.277863 
	C499.649506,336.173645 497.337769,334.069427 494.995911,331.996979 
	C494.995911,331.996979 495.038147,331.986572 494.889893,331.476898 
	C494.596558,331.296722 494.303192,331.116547 493.999756,330.994690 
	C493.999756,330.994690 494.054565,330.972260 493.911285,330.472504 
	C493.527100,330.124115 493.142944,329.775726 492.725494,329.242645 
	C492.725494,329.242645 492.540222,329.212982 492.146729,328.706970 
	C489.769318,327.115417 487.391937,325.523834 484.996307,323.988647 
	C484.996307,323.988647 485.052399,323.969574 484.817200,323.346558 
	C483.883484,322.877655 482.949768,322.408783 481.995300,321.992645 
	C481.995300,321.992645 482.044342,321.964355 481.783752,321.314148 
	C475.464874,317.994843 469.299927,314.330414 462.794891,311.428345 
	C449.397125,305.451294 435.340759,301.677917 420.733398,299.996460 
	C416.550110,299.514893 412.404602,298.704926 407.776062,297.267731 
	C396.634064,297.182678 385.492065,297.084503 374.349915,297.054901 
	C373.841583,297.053528 373.331573,297.669739 372.023560,297.979218 
	C370.005219,298.377167 367.986847,298.775116 365.257538,299.027252 
	C364.776855,299.062653 364.296173,299.098053 363.019775,298.996765 
	C359.659729,299.511383 356.197937,299.672821 352.958405,300.605865 
	C342.567017,303.598816 332.091187,306.433868 321.987183,310.232269 
	C316.926697,312.134644 312.601929,315.994080 307.999725,318.991486 
	C307.999725,318.991486 307.982758,318.934082 307.286835,319.019562 
	C305.575226,320.055511 303.863647,321.091461 301.436035,322.198578 
	C299.475403,323.800354 297.203705,325.142212 295.609711,327.050262 
	C289.675507,334.153687 283.860443,341.363007 278.194519,348.682648 
	C270.796173,358.240295 266.916199,369.383850 264.018677,381.751282 
	C263.234589,384.236237 262.050812,386.673065 261.744629,389.215546 
	C260.960541,395.726532 260.144348,402.282990 260.120941,408.824066 
	C260.089691,417.555573 260.795349,426.289673 260.845245,435.651794 
	C261.497009,438.926483 261.987030,442.243713 262.834625,445.466919 
	C264.531219,451.918640 265.419983,458.704834 270.010162,464.821259 
	C273.351898,470.416809 276.370758,476.243774 280.153931,481.522980 
	C282.501831,484.799408 286.008636,487.245300 289.217316,490.629822 
	C290.122070,491.419067 291.026794,492.208344 292.190308,493.626709 
	C301.367035,503.381073 312.467468,510.785065 324.305176,516.446838 
	C340.456207,524.171692 357.183716,530.828979 374.036407,536.912659 
	C393.420288,543.910034 413.034332,550.211243 431.259552,560.043213 
	C445.998901,567.994629 454.747284,579.991943 453.742462,597.012939 
	C453.265900,605.085754 449.955627,612.991211 447.985413,620.998413 
	C447.985413,620.998413 447.970062,620.938477 447.352570,621.164734 
	C446.883514,622.105103 446.414490,623.045532 445.998138,624.005310 
	C445.998138,624.005310 445.988312,623.950012 445.473572,624.099365 
	C445.294525,624.396484 445.115479,624.693604 444.994812,624.999878 
	C444.994812,624.999878 444.971588,624.945618 444.383209,625.165649 
	C443.568115,626.099060 442.753021,627.032410 441.996582,627.989258 
	C441.996582,627.989258 441.968140,627.932800 441.244354,628.015869 
	C432.799683,633.302734 423.978516,637.644226 413.870026,638.591797 
	C408.495667,639.095581 403.014618,640.269775 397.746002,639.678284 
	C389.425385,638.744080 381.242981,636.578918 372.996124,634.993042 
	C372.996124,634.993042 373.047302,634.964417 372.745575,634.351746 
	C371.500702,633.873474 370.255829,633.395203 369.000977,632.980286 
	C369.000977,632.980286 369.064178,632.969482 368.759216,632.347046 
	C365.842468,630.527527 362.925690,628.708008 359.876434,626.448547 
	C359.698151,626.167053 359.442749,626.015686 358.996399,625.316833 
	C358.007050,624.527161 357.017670,623.737488 356.006622,623.001099 
	C356.006622,623.001099 356.056213,622.971802 355.971130,622.266296 
	C349.992767,615.142029 346.447784,606.801453 343.932404,597.167419 
	C343.636505,595.405640 343.340637,593.643860 343.014374,592.054321 
	C343.014374,592.054321 343.186523,592.085327 342.980743,591.223022 
	C342.665894,588.768860 342.351013,586.314758 342.031860,583.994751 
	C342.031860,583.994751 342.165955,583.998230 341.722534,583.221741 
	C312.151642,583.164246 282.580780,583.105408 253.009857,583.071350 
	C252.749069,583.071045 252.487900,583.403442 251.676437,583.954102 
	C252.059265,588.766296 252.468170,593.906555 253.264816,599.768066 
	C254.591156,606.467407 255.282074,613.376221 257.403687,619.813477 
	C260.091614,627.968872 263.755157,635.826843 267.338501,643.657166 
	C271.982819,653.806152 278.456146,662.684692 286.973145,670.027832 
	C286.973145,670.027832 287.006714,670.028198 287.181152,670.594849 
	C287.783783,671.086243 288.386414,671.577637 289.208588,672.633667 
	C290.108765,673.422852 291.008911,674.212036 292.177307,675.630798 
	C296.853027,679.434082 301.293488,683.581726 306.252777,686.969910 
	C317.026978,694.330994 328.817169,699.619690 341.225342,703.767822 
	C354.626892,708.248047 368.406097,711.397095 382.341461,711.708130 
	C398.690796,712.073120 415.083557,712.830627 431.538452,710.280457 
	C447.484894,707.809082 462.682739,703.505615 476.917908,696.383972 
	C496.605011,686.534851 512.765686,672.284546 524.148560,653.236023 
	C533.560852,637.485168 540.077148,620.636719 541.866699,601.608276 
	C541.909851,594.182007 542.018250,586.755127 541.949524,579.329895 
	C541.932617,577.510864 541.336304,575.697144 540.917847,574.096863 
	C540.917847,574.096863 541.132385,574.188538 540.904846,573.513367 
	C540.880066,573.042236 540.855286,572.571106 540.954773,571.249390 
	C538.577026,562.149353 536.199219,553.049316 533.717896,543.258301 
	C528.754333,535.489746 523.790771,527.721252 518.974182,519.343079 
	C518.684753,518.871094 518.395386,518.399170 518.071777,518.002991 
	C518.071777,518.002991 518.143372,517.960693 517.947021,517.439880 
	C517.641418,517.243652 517.335876,517.047424 517.030884,516.959290 
M687.751221,695.798218 
	C696.599915,690.875122 704.681641,685.001282 711.515808,676.864441 
	C711.815002,676.676575 711.974487,676.406250 712.627014,675.798889 
	C722.602234,665.666870 730.124634,653.850830 734.829590,640.541382 
	C738.219360,630.952332 740.209839,620.868530 742.995789,610.213196 
	C743.667053,605.526001 744.338318,600.838745 745.787659,595.713135 
	C745.858154,595.054626 745.990417,594.396118 745.990479,593.737610 
	C745.999939,497.351685 746.002869,400.965790 745.961792,304.579895 
	C745.961365,303.443237 745.386353,302.306824 744.138428,301.051331 
	C714.491821,300.784485 684.845215,300.512115 655.198120,300.319092 
	C654.857483,300.316833 654.510254,301.342957 654.068542,302.484222 
	C654.105713,302.681824 654.142822,302.879395 654.031738,303.994110 
	C654.026855,397.309967 654.052124,490.625885 653.979797,583.941711 
	C653.970459,595.994263 651.537964,607.535828 644.371826,618.183350 
	C643.891907,619.112183 643.412048,620.041016 642.986816,620.998779 
	C642.986816,620.998779 642.969604,620.939331 642.328613,621.178101 
	C630.831299,632.747864 615.995911,635.906982 600.651611,636.862732 
	C592.138672,637.392944 583.518127,636.193604 574.695007,635.228333 
	C574.114197,635.095947 573.533325,634.963562 572.960754,634.999573 
	C572.960754,634.999573 573.129211,634.992126 572.726624,634.229797 
	C570.947998,634.150757 569.169312,634.071716 567.029846,633.976624 
	C567.029846,657.449707 566.991089,680.642944 567.155457,703.834595 
	C567.162964,704.886719 568.828308,706.391541 570.038391,706.851196 
	C571.500061,707.406555 573.300171,707.071045 575.362549,707.826233 
	C591.993713,709.216919 608.615845,710.736023 625.262573,711.905701 
	C629.298645,712.189270 633.463196,711.601990 637.485718,710.923584 
	C646.043579,709.480408 654.546875,707.714539 663.877747,705.971313 
	C672.268738,704.189453 680.239685,701.423523 687.751221,695.798218 
z"/>
<path fill="#ED7115" opacity="1.000000" stroke="none" 
	d="
M269.955109,464.078827 
	C265.419983,458.704834 264.531219,451.918640 262.834625,445.466919 
	C261.987030,442.243713 261.497009,438.926483 261.205872,434.982239 
	C261.666992,432.166626 262.106567,429.972900 261.813049,427.882111 
	C259.865784,414.010498 261.281219,400.355194 264.022919,386.742401 
	C264.395813,384.890808 264.138977,382.912445 264.173706,380.992767 
	C266.916199,369.383850 270.796173,358.240295 278.194519,348.682648 
	C283.860443,341.363007 289.675507,334.153687 295.609711,327.050262 
	C297.203705,325.142212 299.475403,323.800354 301.866150,322.395844 
	C304.191742,321.373444 306.087250,320.153748 307.982758,318.934082 
	C307.982758,318.934082 307.999725,318.991486 308.330536,318.929565 
	C309.440826,318.584045 310.297333,318.425262 310.988373,317.998505 
	C325.833038,308.830750 342.179657,304.078674 359.254150,301.358795 
	C360.852234,301.104218 362.298676,299.897888 363.815491,299.133484 
	C364.296173,299.098053 364.776855,299.062653 365.975586,299.295715 
	C368.505035,299.711365 370.320831,300.025879 372.127045,299.978241 
	C382.751404,299.698151 393.373474,299.333618 404.341492,299.213104 
	C405.326202,299.597992 405.958649,299.879456 406.606323,299.920410 
	C427.235413,301.224823 447.069305,305.782074 465.904480,314.409698 
	C471.304810,316.883392 476.665466,319.443756 482.044342,321.964355 
	C482.044342,321.964355 481.995300,321.992645 482.163818,322.245911 
	C483.239044,322.989319 484.145721,323.479431 485.052399,323.969574 
	C485.052399,323.969574 484.996307,323.988647 485.159058,324.262756 
	C487.727936,326.095551 490.134094,327.654266 492.540222,329.212982 
	C492.540222,329.212982 492.725494,329.242645 492.754730,329.617035 
	C493.207489,330.318390 493.631012,330.645325 494.054565,330.972260 
	C494.054565,330.972260 493.999756,330.994690 494.139374,331.174561 
	C494.488831,331.617065 494.741882,331.827759 495.038147,331.986572 
	C495.038147,331.986572 494.995911,331.996979 495.070312,332.319580 
	C497.441956,334.752655 499.739166,336.863129 502.036407,338.973602 
	C502.036407,338.973602 502.000000,339.000000 502.072815,339.323486 
	C512.563110,353.200928 521.017761,367.752747 525.022034,384.573914 
	C527.515137,395.047058 529.693909,405.552612 528.866455,416.527039 
	C527.943054,416.717041 527.310974,416.960236 526.678650,416.960876 
	C502.225861,416.985260 477.773010,416.964844 453.320343,417.022675 
	C450.443420,417.029480 449.461761,415.840149 448.800751,413.036591 
	C447.596619,407.929565 445.662750,402.994568 443.960327,397.635803 
	C441.394196,392.241760 440.055328,386.335327 433.942749,384.003601 
	C433.591888,383.979218 433.322388,383.818420 433.013977,382.942688 
	C428.587280,379.182892 424.675415,375.112732 419.898132,372.992615 
	C407.244873,367.377289 393.778137,367.081329 380.278229,369.239929 
	C363.536102,371.916931 351.995422,382.321930 348.607361,397.659363 
	C346.634369,406.590820 347.029053,415.541168 349.992249,424.166199 
	C351.633057,428.942108 353.423401,434.014099 359.000702,435.972717 
	C359.000702,435.972717 359.019287,435.980103 359.090271,436.289001 
	C359.781464,437.056946 360.401642,437.515991 361.021820,437.975067 
	C361.021820,437.975067 361.001221,438.000000 361.035278,438.335327 
	C361.856964,439.154388 362.644562,439.638092 363.432159,440.121796 
	C363.432159,440.121796 363.732452,440.226379 363.756744,440.701233 
	C366.815643,443.314209 369.589386,446.075623 372.933105,447.475189 
	C383.531006,451.911041 394.341766,455.838287 405.070221,459.962158 
	C405.070221,459.962189 405.002106,459.971558 405.238953,460.205505 
	C413.044067,463.266205 420.579559,466.185791 428.195221,468.878601 
	C431.739502,470.131805 435.439423,470.944916 439.068787,471.957520 
	C439.068787,471.957520 439.002899,471.972412 439.234253,472.204834 
	C453.725616,479.081635 467.981232,485.735565 482.265625,492.327148 
	C482.722229,492.537811 483.474030,492.108734 484.088196,491.977875 
	C490.832886,496.583221 497.577576,501.188568 504.802734,506.304626 
	C506.214264,507.176422 507.145325,507.537476 508.076416,507.898499 
	C508.076416,507.898499 508.000580,507.933563 507.792236,508.293243 
	C508.107361,508.763580 508.630829,508.874207 509.154266,508.984863 
	C509.154266,508.984863 509.051666,508.981354 508.781738,509.262939 
	C509.389740,510.021667 510.267700,510.498871 511.145630,510.976074 
	C511.145630,510.976074 511.016968,510.977600 510.893280,511.295532 
	C511.231293,511.742310 511.693024,511.871185 512.154724,512.000061 
	C512.154724,512.000061 512.000305,512.000061 511.923981,512.302795 
	C512.283142,512.736572 512.718689,512.867554 513.154175,512.998596 
	C513.154175,512.998596 513.000305,512.999084 512.925293,513.308105 
	C513.284851,513.741699 513.719421,513.866211 514.154053,513.990723 
	C514.154053,513.990723 514.007996,513.991150 513.913208,514.305298 
	C514.263855,514.743530 514.709229,514.867615 515.154663,514.991699 
	C515.154663,514.991699 515.006226,514.992493 514.916138,515.324097 
	C515.266479,515.762634 515.706970,515.869507 516.147461,515.976440 
	C516.147461,515.976440 516.014099,515.978699 515.891235,516.347839 
	C516.225220,516.796997 516.682129,516.877014 517.138977,516.957092 
	C517.138977,516.957092 517.030884,516.959290 516.846313,517.337524 
	C517.155640,517.797424 517.649475,517.879089 518.143372,517.960693 
	C518.143372,517.960693 518.071777,518.002991 517.735840,518.122437 
	C517.875732,518.812134 518.351440,519.382446 518.827209,519.952698 
	C523.790771,527.721252 528.754333,535.489746 533.486145,543.675415 
	C532.807434,544.691040 531.867188,545.444397 531.998169,545.861694 
	C532.591064,547.750610 533.658447,549.491150 534.246582,551.381042 
	C540.178589,570.442505 541.521484,589.850708 538.001770,609.491760 
	C529.696594,655.837341 502.556488,686.528320 458.534424,701.618896 
	C427.595886,712.224548 395.467377,712.414673 363.404602,706.896973 
	C338.398193,702.593628 315.488312,693.270935 295.949677,676.581848 
	C294.910767,675.694458 293.269775,675.511902 291.909058,675.001221 
	C291.008911,674.212036 290.108765,673.422852 289.035767,672.045227 
	C288.244202,670.980591 287.625458,670.504395 287.006714,670.028198 
	C287.006714,670.028198 286.973145,670.027832 286.974274,669.650635 
	C286.281769,667.988464 285.741486,666.586609 284.867340,665.439087 
	C281.442902,660.943787 277.644318,656.711792 274.469757,652.051575 
	C261.867920,633.551941 256.030090,612.759155 254.078415,590.680237 
	C253.722275,586.651367 255.780823,585.943176 259.169708,585.968079 
	C272.331177,586.064819 285.493805,586.026306 298.655945,586.003601 
	C310.483795,585.983276 322.336212,586.342590 334.127106,585.659546 
	C338.729340,585.392883 339.991241,587.004272 340.855652,590.698425 
	C342.248779,596.651794 343.034027,602.939514 345.589630,608.374268 
	C348.095245,613.702454 352.490387,618.142151 356.056213,622.971802 
	C356.056213,622.971802 356.006622,623.001099 356.079254,623.309082 
	C357.138000,624.409485 358.124115,625.202026 359.110229,625.994507 
	C359.442749,626.015686 359.698151,626.167053 360.031189,627.002441 
	C363.145325,629.360779 366.104736,631.165161 369.064178,632.969482 
	C369.064178,632.969482 369.000977,632.980286 369.185486,633.242676 
	C370.595764,633.991516 371.821533,634.477966 373.047302,634.964417 
	C373.047302,634.964417 372.996124,634.993042 373.241272,635.230225 
	C396.013641,643.994141 417.988617,643.749268 439.125519,631.201782 
	C440.304443,630.501892 441.031036,629.040039 441.968140,627.932800 
	C441.968140,627.932800 441.996582,627.989258 442.298767,627.917786 
	C443.391174,626.879395 444.181366,625.912537 444.971588,624.945618 
	C444.971588,624.945618 444.994812,624.999878 445.174072,624.857300 
	C445.614624,624.501038 445.826263,624.246155 445.988312,623.950012 
	C445.988312,623.950012 445.998138,624.005310 446.252136,623.836914 
	C446.994110,622.758545 447.482117,621.848511 447.970093,620.938477 
	C447.970062,620.938477 447.985413,620.998413 448.292847,620.893860 
	C449.723938,619.195679 451.524445,617.730164 451.854279,615.986389 
	C453.293121,608.379456 455.008240,600.715881 455.273041,593.026367 
	C455.537048,585.359009 453.233490,578.061096 448.479462,571.584045 
	C441.668793,562.304993 432.020477,557.023438 421.882812,552.941406 
	C401.399170,544.693665 380.569672,537.308411 359.928101,529.448608 
	C337.037323,520.732300 314.565033,511.221405 295.957611,494.598053 
	C294.946228,493.694489 293.288422,493.514435 291.931549,492.997589 
	C291.026794,492.208344 290.122070,491.419067 289.053772,489.998230 
	C288.332397,488.355469 287.865234,487.280090 287.202240,486.343292 
	C282.045929,479.057434 276.865417,471.788513 271.630432,464.559174 
	C271.362244,464.188843 270.526581,464.229523 269.955109,464.078827 
z"/>
<path fill="#ED7115" opacity="1.000000" stroke="none" 
	d="
M644.974609,617.915955 
	C651.537964,607.535828 653.970459,595.994263 653.979797,583.941711 
	C654.052124,490.625885 654.026855,397.309967 654.563110,303.525360 
	C684.370483,303.053101 713.646484,303.049622 742.943604,303.511475 
	C742.971375,401.553772 743.005859,499.130768 742.900391,596.707642 
	C742.895264,601.474060 741.664734,606.239136 740.989319,611.415405 
	C736.989563,634.050842 728.592102,654.267883 713.920227,671.676636 
	C712.934692,672.846008 712.620605,674.581421 711.994202,676.053589 
	C711.974487,676.406250 711.815002,676.676575 710.934509,676.984314 
	C703.559631,682.070129 696.748352,687.012207 689.984924,692.018860 
	C688.284912,693.277405 686.738159,694.742981 685.105103,696.083862 
	C685.089233,696.054260 685.152100,696.077820 684.844543,696.135803 
	C684.024597,696.538025 683.512268,696.882263 683.018799,697.149780 
	C683.037781,697.073120 683.190613,697.113403 682.878540,697.158325 
	C682.043640,697.538452 681.520813,697.873718 681.017517,698.139099 
	C681.037109,698.069214 681.176086,698.110718 680.781982,698.089600 
	C678.300720,699.156494 676.213684,700.244446 674.129272,701.263916 
	C674.131836,701.195496 674.268372,701.207764 673.869385,701.163330 
	C671.827942,701.968506 670.185547,702.818115 668.538757,703.691650 
	C668.534302,703.715698 668.485413,703.716492 668.072388,703.579712 
	C666.672302,703.419800 665.608948,703.141663 664.709656,703.411133 
	C646.330444,708.919373 627.534485,710.553467 608.507629,708.907593 
	C596.775024,707.892761 585.111755,706.071838 573.419434,704.596863 
	C570.288818,704.201904 568.952881,702.594727 568.975769,699.237976 
	C569.106018,680.078430 569.107910,660.917297 568.994080,641.757568 
	C568.971436,637.940735 570.540833,636.865906 574.115479,637.021545 
	C584.579285,637.477234 595.057861,638.069031 605.521423,637.927185 
	C616.176086,637.782715 626.343933,634.987122 635.269165,629.007935 
	C638.284424,626.987854 640.427734,623.666138 642.969604,620.939331 
	C642.969604,620.939331 642.986816,620.998779 643.241516,620.932495 
	C643.989014,619.882751 644.481812,618.899353 644.974609,617.915955 
z"/>
<path fill="#EC5B0B" opacity="1.000000" stroke="none" 
	d="
M292.043182,675.316040 
	C293.269775,675.511902 294.910767,675.694458 295.949677,676.581848 
	C315.488312,693.270935 338.398193,702.593628 363.404602,706.896973 
	C395.467377,712.414673 427.595886,712.224548 458.534424,701.618896 
	C502.556488,686.528320 529.696594,655.837341 538.001770,609.491760 
	C541.521484,589.850708 540.178589,570.442505 534.246582,551.381042 
	C533.658447,549.491150 532.591064,547.750610 531.998169,545.861694 
	C531.867188,545.444397 532.807434,544.691040 533.537964,544.020874 
	C536.199219,553.049316 538.577026,562.149353 540.644958,571.792969 
	C540.600891,572.953857 540.866638,573.571167 541.132385,574.188538 
	C541.132385,574.188538 540.917847,574.096863 540.826599,574.448730 
	C540.859619,583.881042 540.983948,592.961487 541.108215,602.041931 
	C540.077148,620.636719 533.560852,637.485168 524.148560,653.236023 
	C512.765686,672.284546 496.605011,686.534851 476.917908,696.383972 
	C462.682739,703.505615 447.484894,707.809082 431.538452,710.280457 
	C415.083557,712.830627 398.690796,712.073120 382.341461,711.708130 
	C368.406097,711.397095 354.626892,708.248047 341.225342,703.767822 
	C328.817169,699.619690 317.026978,694.330994 306.252777,686.969910 
	C301.293488,683.581726 296.853027,679.434082 292.043182,675.316040 
z"/>
<path fill="#EB5E06" opacity="1.000000" stroke="none" 
	d="
M741.004883,611.004883 
	C741.664734,606.239136 742.895264,601.474060 742.900391,596.707642 
	C743.005859,499.130768 742.971375,401.553772 743.268921,303.499878 
	C744.005249,303.020111 744.437439,303.017242 744.930786,303.478577 
	C744.992310,397.832550 744.992493,491.722351 744.993774,585.612122 
	C744.993774,589.125244 745.004028,592.638428 745.009521,596.151550 
	C744.338318,600.838745 743.667053,605.526001 742.606812,610.608521 
	C741.813538,611.004150 741.409180,611.004517 741.004883,611.004883 
z"/>
<path fill="#EC5B0B" opacity="1.000000" stroke="none" 
	d="
M292.060913,493.312134 
	C293.288422,493.514435 294.946228,493.694489 295.957611,494.598053 
	C314.565033,511.221405 337.037323,520.732300 359.928101,529.448608 
	C380.569672,537.308411 401.399170,544.693665 421.882812,552.941406 
	C432.020477,557.023438 441.668793,562.304993 448.479462,571.584045 
	C453.233490,578.061096 455.537048,585.359009 455.273041,593.026367 
	C455.008240,600.715881 453.293121,608.379456 451.854279,615.986389 
	C451.524445,617.730164 449.723938,619.195679 448.264709,620.880920 
	C449.955627,612.991211 453.265900,605.085754 453.742462,597.012939 
	C454.747284,579.991943 445.998901,567.994629 431.259552,560.043213 
	C413.034332,550.211243 393.420288,543.910034 374.036407,536.912659 
	C357.183716,530.828979 340.456207,524.171692 324.305176,516.446838 
	C312.467468,510.785065 301.367035,503.381073 292.060913,493.312134 
z"/>
<path fill="#EC5B0B" opacity="1.000000" stroke="none" 
	d="
M356.013672,622.619019 
	C352.490387,618.142151 348.095245,613.702454 345.589630,608.374268 
	C343.034027,602.939514 342.248779,596.651794 340.855652,590.698425 
	C339.991241,587.004272 338.729340,585.392883 334.127106,585.659546 
	C322.336212,586.342590 310.483795,585.983276 298.655945,586.003601 
	C285.493805,586.026306 272.331177,586.064819 259.169708,585.968079 
	C255.780823,585.943176 253.722275,586.651367 254.078415,590.680237 
	C256.030090,612.759155 261.867920,633.551941 274.469757,652.051575 
	C277.644318,656.711792 281.442902,660.943787 284.867340,665.439087 
	C285.741486,666.586609 286.281769,667.988464 286.973419,669.633911 
	C278.456146,662.684692 271.982819,653.806152 267.338501,643.657166 
	C263.755157,635.826843 260.091614,627.968872 257.403687,619.813477 
	C255.282074,613.376221 254.591156,606.467407 253.233856,598.961426 
	C253.202896,593.554565 253.202896,588.954407 253.202896,583.998230 
	C282.980774,583.998230 312.573364,583.998230 342.165955,583.998230 
	C342.165955,583.998230 342.031860,583.994751 341.774536,584.311890 
	C342.073669,587.114502 342.630096,589.599915 343.186523,592.085327 
	C343.186523,592.085327 343.014374,592.054321 342.751282,592.287354 
	C342.938263,594.344666 343.388306,596.168945 343.838318,597.993286 
	C346.447784,606.801453 349.992767,615.142029 356.013672,622.619019 
z"/>
<path fill="#EC5B0B" opacity="1.000000" stroke="none" 
	d="
M642.649048,621.058716 
	C640.427734,623.666138 638.284424,626.987854 635.269165,629.007935 
	C626.343933,634.987122 616.176086,637.782715 605.521423,637.927185 
	C595.057861,638.069031 584.579285,637.477234 574.115479,637.021545 
	C570.540833,636.865906 568.971436,637.940735 568.994080,641.757568 
	C569.107910,660.917297 569.106018,680.078430 568.975769,699.237976 
	C568.952881,702.594727 570.288818,704.201904 573.419434,704.596863 
	C585.111755,706.071838 596.775024,707.892761 608.507629,708.907593 
	C627.534485,710.553467 646.330444,708.919373 664.709656,703.411133 
	C665.608948,703.141663 666.672302,703.419800 667.748596,703.705261 
	C666.249451,704.672058 664.661011,705.376526 663.072571,706.080933 
	C654.546875,707.714539 646.043579,709.480408 637.485718,710.923584 
	C633.463196,711.601990 629.298645,712.189270 625.262573,711.905701 
	C608.615845,710.736023 591.993713,709.216919 575.021057,707.102844 
	C572.479004,705.849365 570.278503,705.319275 568.107666,704.796326 
	C568.107666,681.390076 568.107666,658.342163 568.107666,634.992126 
	C569.928528,634.992126 571.528870,634.992126 573.129211,634.992126 
	C573.129211,634.992126 572.960754,634.999573 572.991211,635.244202 
	C573.663147,635.583801 574.304565,635.678772 574.946045,635.773743 
	C583.518127,636.193604 592.138672,637.392944 600.651611,636.862732 
	C615.995911,635.906982 630.831299,632.747864 642.649048,621.058716 
z"/>
<path fill="#EB5E06" opacity="1.000000" stroke="none" 
	d="
M444.033325,397.987793 
	C445.662750,402.994568 447.596619,407.929565 448.800751,413.036591 
	C449.461761,415.840149 450.443420,417.029480 453.320343,417.022675 
	C477.773010,416.964844 502.225861,416.985260 526.678650,416.960876 
	C527.310974,416.960236 527.943054,416.717041 528.866455,416.527039 
	C529.693909,405.552612 527.515137,395.047058 525.022034,384.573914 
	C521.017761,367.752747 512.563110,353.200928 502.086090,339.305420 
	C509.417633,343.635773 513.088745,351.237061 517.072815,358.486206 
	C525.195801,373.266235 529.854553,389.124115 530.660461,406.626770 
	C530.630981,411.012085 530.913086,414.756775 531.237061,419.056976 
	C503.021851,419.056976 475.446655,419.056976 447.871460,419.056976 
	C446.244110,412.310181 444.616760,405.563416 443.229736,398.428528 
	C443.657806,398.022858 443.845551,398.005310 444.033325,397.987793 
z"/>
<path fill="#EC5B0B" opacity="1.000000" stroke="none" 
	d="
M358.882812,435.652893 
	C353.423401,434.014099 351.633057,428.942108 349.992249,424.166199 
	C347.029053,415.541168 346.634369,406.590820 348.607361,397.659363 
	C351.995422,382.321930 363.536102,371.916931 380.278229,369.239929 
	C393.778137,367.081329 407.244873,367.377289 419.898132,372.992615 
	C424.675415,375.112732 428.587280,379.182892 432.944336,382.710083 
	C427.817230,380.017090 422.849762,376.500549 417.392181,374.096893 
	C413.340363,372.312469 408.643860,371.118073 404.249695,371.162537 
	C394.402344,371.262207 384.333466,371.197754 374.775635,373.204468 
	C359.571960,376.396606 350.944885,387.953339 350.051422,403.122345 
	C349.460175,413.160004 349.624268,423.214661 355.976532,431.894592 
	C356.846985,433.083954 357.832581,434.189026 358.882812,435.652893 
z"/>
<path fill="#FFFFFF" opacity="1.000000" stroke="none" 
	d="
M745.398621,595.932373 
	C745.004028,592.638428 744.993774,589.125244 744.993774,585.612122 
	C744.992493,491.722351 744.992310,397.832550 744.998901,303.238342 
	C745.005737,302.533905 744.925964,302.041321 744.992432,301.828522 
	C745.058899,301.615723 745.079529,301.170319 745.079529,301.170319 
	C745.386353,302.306824 745.961365,303.443237 745.961792,304.579895 
	C746.002869,400.965790 745.999939,497.351685 745.990479,593.737610 
	C745.990417,594.396118 745.858154,595.054626 745.398621,595.932373 
z"/>
<path fill="#EC5B0B" opacity="1.000000" stroke="none" 
	d="
M740.989380,611.415405 
	C741.409180,611.004517 741.813538,611.004150 742.521118,611.004639 
	C740.209839,620.868530 738.219360,630.952332 734.829590,640.541382 
	C730.124634,653.850830 722.602234,665.666870 712.310608,675.926270 
	C712.620605,674.581421 712.934692,672.846008 713.920227,671.676636 
	C728.592102,654.267883 736.989563,634.050842 740.989380,611.415405 
z"/>
<path fill="#EB5E06" opacity="1.000000" stroke="none" 
	d="
M481.914062,321.639252 
	C476.665466,319.443756 471.304810,316.883392 465.904480,314.409698 
	C447.069305,305.782074 427.235413,301.224823 406.606323,299.920410 
	C405.958649,299.879456 405.326202,299.597992 404.341919,299.006805 
	C403.997162,298.584961 403.997742,298.172302 404.419739,298.116028 
	C405.975067,298.055023 407.108429,298.050293 408.241791,298.045532 
	C412.404602,298.704926 416.550110,299.514893 420.733398,299.996460 
	C435.340759,301.677917 449.397125,305.451294 462.794891,311.428345 
	C469.299927,314.330414 475.464874,317.994843 481.914062,321.639252 
z"/>
<path fill="#EC5B0B" opacity="1.000000" stroke="none" 
	d="
M441.606262,627.974365 
	C441.031036,629.040039 440.304443,630.501892 439.125519,631.201782 
	C417.988617,643.749268 396.013641,643.994141 373.244263,635.201111 
	C381.242981,636.578918 389.425385,638.744080 397.746002,639.678284 
	C403.014618,640.269775 408.495667,639.095581 413.870026,638.591797 
	C423.978516,637.644226 432.799683,633.302734 441.606262,627.974365 
z"/>
<path fill="#EC5B0B" opacity="1.000000" stroke="none" 
	d="
M363.417633,299.065125 
	C362.298676,299.897888 360.852234,301.104218 359.254150,301.358795 
	C342.179657,304.078674 325.833038,308.830750 310.988373,317.998505 
	C310.297333,318.425262 309.440826,318.584045 308.302917,318.918030 
	C312.601929,315.994080 316.926697,312.134644 321.987183,310.232269 
	C332.091187,306.433868 342.567017,303.598816 352.958405,300.605865 
	C356.197937,299.672821 359.659729,299.511383 363.417633,299.065125 
z"/>
<path fill="#FFFFFF" opacity="1.000000" stroke="none" 
	d="
M341.944244,583.609985 
	C312.573364,583.998230 282.980774,583.998230 253.202896,583.998230 
	C253.202896,588.954407 253.202896,593.554565 253.039993,598.600830 
	C252.468170,593.906555 252.059265,588.766296 251.676437,583.954102 
	C252.487900,583.403442 252.749069,583.071045 253.009857,583.071350 
	C282.580780,583.105408 312.151642,583.164246 341.944244,583.609985 
z"/>
<path fill="#FFFFFF" opacity="1.000000" stroke="none" 
	d="
M448.097290,419.437683 
	C475.446655,419.056976 503.021851,419.056976 531.237061,419.056976 
	C530.913086,414.756775 530.630981,411.012085 530.670410,407.059204 
	C531.482605,410.989349 531.973145,415.127716 532.529236,419.818390 
	C504.047119,419.818390 476.185150,419.818390 448.097290,419.437683 
z"/>
<path fill="#F6B183" opacity="1.000000" stroke="none" 
	d="
M744.609009,301.110840 
	C745.079529,301.170319 745.058899,301.615723 744.533325,301.758728 
	C714.060547,301.897461 684.113342,301.893250 654.166138,301.889038 
	C654.510254,301.342957 654.857483,300.316833 655.198120,300.319092 
	C684.845215,300.512115 714.491821,300.784485 744.609009,301.110840 
z"/>
<path fill="#EC5B0B" opacity="1.000000" stroke="none" 
	d="
M654.117310,302.186646 
	C684.113342,301.893250 714.060547,301.897461 744.466858,301.971497 
	C744.925964,302.041321 745.005737,302.533905 744.937683,302.774109 
	C744.437439,303.017242 744.005249,303.020111 743.247742,303.034546 
	C713.646484,303.049622 684.370483,303.053101 654.637207,303.066772 
	C654.142822,302.879395 654.105713,302.681824 654.117310,302.186646 
z"/>
<path fill="#FFFFFF" opacity="1.000000" stroke="none" 
	d="
M572.927917,634.610962 
	C571.528870,634.992126 569.928528,634.992126 568.107666,634.992126 
	C568.107666,658.342163 568.107666,681.390076 568.107666,704.796326 
	C570.278503,705.319275 572.479004,705.849365 574.816711,706.750244 
	C573.300171,707.071045 571.500061,707.406555 570.038391,706.851196 
	C568.828308,706.391541 567.162964,704.886719 567.155457,703.834595 
	C566.991089,680.642944 567.029846,657.449707 567.029846,633.976624 
	C569.169312,634.071716 570.947998,634.150757 572.927917,634.610962 
z"/>
<path fill="#EC5B0B" opacity="1.000000" stroke="none" 
	d="
M264.096191,381.372009 
	C264.138977,382.912445 264.395813,384.890808 264.022919,386.742401 
	C261.281219,400.355194 259.865784,414.010498 261.813049,427.882111 
	C262.106567,429.972900 261.666992,432.166626 261.375549,434.667694 
	C260.795349,426.289673 260.089691,417.555573 260.120941,408.824066 
	C260.144348,402.282990 260.960541,395.726532 261.744629,389.215546 
	C262.050812,386.673065 263.234589,384.236237 264.096191,381.372009 
z"/>
<path fill="#EC5B0B" opacity="1.000000" stroke="none" 
	d="
M483.911591,491.664215 
	C483.474030,492.108734 482.722229,492.537811 482.265625,492.327148 
	C467.981232,485.735565 453.725616,479.081635 439.231934,472.171112 
	C445.976593,474.398254 453.123505,476.508057 459.889648,479.483673 
	C468.007660,483.053772 475.801056,487.361969 483.911591,491.664215 
z"/>
<path fill="#EC5B0B" opacity="1.000000" stroke="none" 
	d="
M404.897552,459.633667 
	C394.341766,455.838287 383.531006,451.911041 372.933105,447.475189 
	C369.589386,446.075623 366.815643,443.314209 363.819824,440.847168 
	C376.477936,448.961823 390.688538,453.943939 404.897552,459.633667 
z"/>
<path fill="#EC5B0B" opacity="1.000000" stroke="none" 
	d="
M685.121033,696.113464 
	C686.738159,694.742981 688.284912,693.277405 689.984924,692.018860 
	C696.748352,687.012207 703.559631,682.070129 710.701538,677.053772 
	C704.681641,685.001282 696.599915,690.875122 687.099365,695.853882 
	C686.005371,695.977539 685.563232,696.045471 685.121033,696.113464 
z"/>
<path fill="#EC5B0B" opacity="1.000000" stroke="none" 
	d="
M269.982635,464.450043 
	C270.526581,464.229523 271.362244,464.188843 271.630432,464.559174 
	C276.865417,471.788513 282.045929,479.057434 287.202240,486.343292 
	C287.865234,487.280090 288.332397,488.355469 288.942749,489.715332 
	C286.008636,487.245300 282.501831,484.799408 280.153931,481.522980 
	C276.370758,476.243774 273.351898,470.416809 269.982635,464.450043 
z"/>
<path fill="#EC5B0B" opacity="1.000000" stroke="none" 
	d="
M438.899841,471.631836 
	C435.439423,470.944916 431.739502,470.131805 428.195221,468.878601 
	C420.579559,466.185791 413.044067,463.266205 405.237640,460.171143 
	C413.094086,462.506927 421.203857,465.064941 429.275665,467.737793 
	C432.470917,468.795837 435.581665,470.109100 438.899841,471.631836 
z"/>
<path fill="#EC5B0B" opacity="1.000000" stroke="none" 
	d="
M403.997742,298.172302 
	C403.997742,298.172302 403.997162,298.584961 403.996765,298.791260 
	C393.373474,299.333618 382.751404,299.698151 372.127045,299.978241 
	C370.320831,300.025879 368.505035,299.711365 366.331085,299.368622 
	C367.986847,298.775116 370.005219,298.377167 372.895203,298.082306 
	C383.843811,298.181030 393.920776,298.176666 403.997742,298.172302 
z"/>
<path fill="#FFFFFF" opacity="1.000000" stroke="none" 
	d="
M404.419739,298.116028 
	C393.920776,298.176666 383.843811,298.181030 373.294586,298.091858 
	C373.331573,297.669739 373.841583,297.053528 374.349915,297.054901 
	C385.492065,297.084503 396.634064,297.182678 408.008911,297.656616 
	C407.108429,298.050293 405.975067,298.055023 404.419739,298.116028 
z"/>
<path fill="#EC5B0B" opacity="1.000000" stroke="none" 
	d="
M443.960327,397.635803 
	C443.845551,398.005310 443.657806,398.022858 443.189484,398.072052 
	C439.940491,393.644196 436.972015,389.184723 433.973145,384.364441 
	C440.055328,386.335327 441.394196,392.241760 443.960327,397.635803 
z"/>
<path fill="#FFFFFF" opacity="1.000000" stroke="none" 
	d="
M685.105103,696.083862 
	C685.563232,696.045471 686.005371,695.977539 686.774658,695.984375 
	C680.239685,701.423523 672.268738,704.189453 663.475159,706.026123 
	C664.661011,705.376526 666.249451,704.672058 668.161621,703.842041 
	C668.485413,703.716492 668.534302,703.715698 668.848267,703.516663 
	C670.864319,702.614319 672.566345,701.911011 674.268372,701.207764 
	C674.268372,701.207764 674.131836,701.195496 674.486572,701.181274 
	C676.952881,700.148193 679.064453,699.129456 681.176086,698.110718 
	C681.176086,698.110718 681.037109,698.069214 681.340881,698.080444 
	C682.159973,697.765625 682.675293,697.439514 683.190613,697.113403 
	C683.190613,697.113403 683.037781,697.073120 683.337158,697.080261 
	C684.141724,696.750854 684.646912,696.414368 685.152100,696.077881 
	C685.152100,696.077820 685.089233,696.054260 685.105103,696.083862 
z"/>
<path fill="#FFFFFF" opacity="1.000000" stroke="none" 
	d="
M541.487427,601.825073 
	C540.983948,592.961487 540.859619,583.881042 540.870850,574.340820 
	C541.336304,575.697144 541.932617,577.510864 541.949524,579.329895 
	C542.018250,586.755127 541.909851,594.182007 541.487427,601.825073 
z"/>
<path fill="#EB5E06" opacity="1.000000" stroke="none" 
	d="
M501.998840,338.625732 
	C499.739166,336.863129 497.441956,334.752655 495.085388,332.303711 
	C497.337769,334.069427 499.649506,336.173645 501.998840,338.625732 
z"/>
<path fill="#EC5B0B" opacity="1.000000" stroke="none" 
	d="
M368.911682,632.658264 
	C366.104736,631.165161 363.145325,629.360779 360.097412,627.222473 
	C362.925690,628.708008 365.842468,630.527527 368.911682,632.658264 
z"/>
<path fill="#EB5E06" opacity="1.000000" stroke="none" 
	d="
M492.343475,328.959961 
	C490.134094,327.654266 487.727936,326.095551 485.168152,324.234558 
	C487.391937,325.523834 489.769318,327.115417 492.343475,328.959961 
z"/>
<path fill="#EC5B0B" opacity="1.000000" stroke="none" 
	d="
M307.634796,318.976807 
	C306.087250,320.153748 304.191742,321.373444 302.224121,322.360291 
	C303.863647,321.091461 305.575226,320.055511 307.634796,318.976807 
z"/>
<path fill="#FFFFFF" opacity="1.000000" stroke="none" 
	d="
M343.083618,591.654175 
	C342.630096,589.599915 342.073669,587.114502 341.776672,584.244873 
	C342.351013,586.314758 342.665894,588.768860 343.083618,591.654175 
z"/>
<path fill="#EC5B0B" opacity="1.000000" stroke="none" 
	d="
M644.673218,618.049683 
	C644.481812,618.899353 643.989014,619.882751 643.214172,620.917969 
	C643.412048,620.041016 643.891907,619.112183 644.673218,618.049683 
z"/>
<path fill="#EC5B0B" opacity="1.000000" stroke="none" 
	d="
M359.053314,625.655640 
	C358.124115,625.202026 357.138000,624.409485 356.090088,623.282410 
	C357.017670,623.737488 358.007050,624.527161 359.053314,625.655640 
z"/>
<path fill="#FFFFFF" opacity="1.000000" stroke="none" 
	d="
M343.885376,597.580322 
	C343.388306,596.168945 342.938263,594.344666 342.766479,592.201172 
	C343.340637,593.643860 343.636505,595.405640 343.885376,597.580322 
z"/>
<path fill="#EC5B0B" opacity="1.000000" stroke="none" 
	d="
M363.289917,439.888123 
	C362.644562,439.638092 361.856964,439.154388 361.048279,438.324921 
	C361.734039,438.537598 362.440857,439.096008 363.289917,439.888123 
z"/>
<path fill="#EC5B0B" opacity="1.000000" stroke="none" 
	d="
M444.677399,625.055664 
	C444.181366,625.912537 443.391174,626.879395 442.269440,627.906067 
	C442.753021,627.032410 443.568115,626.099060 444.677399,625.055664 
z"/>
<path fill="#EC5B0B" opacity="1.000000" stroke="none" 
	d="
M372.896423,634.658081 
	C371.821533,634.477966 370.595764,633.991516 369.190430,633.210999 
	C370.255829,633.395203 371.500702,633.873474 372.896423,634.658081 
z"/>
<path fill="#EB5E06" opacity="1.000000" stroke="none" 
	d="
M484.934814,323.658081 
	C484.145721,323.479431 483.239044,322.989319 482.174194,322.219543 
	C482.949768,322.408783 483.883484,322.877655 484.934814,323.658081 
z"/>
<path fill="#FFFFFF" opacity="1.000000" stroke="none" 
	d="
M507.946655,507.586029 
	C507.145325,507.537476 506.214264,507.176422 505.088928,506.489807 
	C505.868713,506.533997 506.842804,506.903778 507.946655,507.586029 
z"/>
<path fill="#EC5B0B" opacity="1.000000" stroke="none" 
	d="
M447.661316,621.051636 
	C447.482117,621.848511 446.994110,622.758545 446.225769,623.827271 
	C446.414490,623.045532 446.883514,622.105103 447.661316,621.051636 
z"/>
<path fill="#EC5B0B" opacity="1.000000" stroke="none" 
	d="
M360.933258,437.694092 
	C360.401642,437.515991 359.781464,437.056946 359.094147,436.298248 
	C359.632904,436.470123 360.238800,436.941589 360.933258,437.694092 
z"/>
<path fill="#EC5B0B" opacity="1.000000" stroke="none" 
	d="
M287.093933,670.311523 
	C287.625458,670.504395 288.244202,670.980591 288.925995,671.762939 
	C288.386414,671.577637 287.783783,671.086243 287.093933,670.311523 
z"/>
<path fill="#FFFFFF" opacity="1.000000" stroke="none" 
	d="
M511.033630,510.690002 
	C510.267700,510.498871 509.389740,510.021667 508.784241,509.211639 
	C509.678314,509.387177 510.299988,509.895569 511.033630,510.690002 
z"/>
<path fill="#FFFFFF" opacity="1.000000" stroke="none" 
	d="
M574.820557,635.501038 
	C574.304565,635.678772 573.663147,635.583801 572.987061,635.159973 
	C573.533325,634.963562 574.114197,635.095947 574.820557,635.501038 
z"/>
<path fill="#EB5E06" opacity="1.000000" stroke="none" 
	d="
M493.982910,330.722382 
	C493.631012,330.645325 493.207489,330.318390 492.771362,329.709381 
	C493.142944,329.775726 493.527100,330.124115 493.982910,330.722382 
z"/>
<path fill="#FFFFFF" opacity="1.000000" stroke="none" 
	d="
M541.018616,573.850952 
	C540.866638,573.571167 540.600891,572.953857 540.582886,572.218262 
	C540.855286,572.571106 540.880066,573.042236 541.018616,573.850952 
z"/>
<path fill="#FFFFFF" opacity="1.000000" stroke="none" 
	d="
M518.900696,519.647888 
	C518.351440,519.382446 517.875732,518.812134 517.752930,518.084534 
	C518.395386,518.399170 518.684753,518.871094 518.900696,519.647888 
z"/>
<path fill="#FFFFFF" opacity="1.000000" stroke="none" 
	d="
M513.054321,512.726624 
	C512.718689,512.867554 512.283142,512.736572 511.924286,512.225586 
	C512.318787,512.048645 512.636597,512.251648 513.054321,512.726624 
z"/>
<path fill="#FFFFFF" opacity="1.000000" stroke="none" 
	d="
M512.056274,511.729919 
	C511.693024,511.871185 511.231293,511.742310 510.892914,511.231201 
	C511.330078,511.052551 511.643951,511.256134 512.056274,511.729919 
z"/>
<path fill="#FFFFFF" opacity="1.000000" stroke="none" 
	d="
M509.056427,508.722168 
	C508.630829,508.874207 508.107361,508.763580 507.813507,508.257294 
	C508.348236,508.060913 508.653412,508.260162 509.056427,508.722168 
z"/>
<path fill="#FFFFFF" opacity="1.000000" stroke="none" 
	d="
M514.053101,513.720459 
	C513.719421,513.866211 513.284851,513.741699 512.925293,513.231201 
	C513.317566,513.046875 513.634827,513.248535 514.053101,513.720459 
z"/>
<path fill="#EB5E06" opacity="1.000000" stroke="none" 
	d="
M494.964020,331.731750 
	C494.741882,331.827759 494.488831,331.617065 494.144409,331.145386 
	C494.303192,331.116547 494.596558,331.296722 494.964020,331.731750 
z"/>
<path fill="#FFFFFF" opacity="1.000000" stroke="none" 
	d="
M515.054199,514.722168 
	C514.709229,514.867615 514.263855,514.743530 513.913147,514.232300 
	C514.323181,514.047607 514.638428,514.250122 515.054199,514.722168 
z"/>
<path fill="#EC5B0B" opacity="1.000000" stroke="none" 
	d="
M445.730957,624.024658 
	C445.826263,624.246155 445.614624,624.501038 445.144897,624.852722 
	C445.115479,624.693604 445.294525,624.396484 445.730957,624.024658 
z"/>
<path fill="#FFFFFF" opacity="1.000000" stroke="none" 
	d="
M516.047546,515.709412 
	C515.706970,515.869507 515.266479,515.762634 514.915833,515.249878 
	C515.319641,515.043457 515.633667,515.242920 516.047546,515.709412 
z"/>
<path fill="#FFFFFF" opacity="1.000000" stroke="none" 
	d="
M517.040283,516.694519 
	C516.682129,516.877014 516.225220,516.796997 515.890442,516.281128 
	C516.322205,516.040833 516.631897,516.236389 517.040283,516.694519 
z"/>
<path fill="#FFFFFF" opacity="1.000000" stroke="none" 
	d="
M518.045166,517.700317 
	C517.649475,517.879089 517.155640,517.797424 516.846008,517.283508 
	C517.335876,517.047424 517.641418,517.243652 518.045166,517.700317 
z"/>
<path fill="#EC5B0B" opacity="1.000000" stroke="none" 
	d="
M680.781982,698.089600 
	C679.064453,699.129456 676.952881,700.148193 674.483948,701.249695 
	C676.213684,700.244446 678.300720,699.156494 680.781982,698.089600 
z"/>
<path fill="#EC5B0B" opacity="1.000000" stroke="none" 
	d="
M673.869385,701.163330 
	C672.566345,701.911011 670.864319,702.614319 668.852783,703.492676 
	C670.185547,702.818115 671.827942,701.968506 673.869385,701.163330 
z"/>
<path fill="#EC5B0B" opacity="1.000000" stroke="none" 
	d="
M684.844543,696.135864 
	C684.646912,696.414368 684.141724,696.750854 683.318176,697.156982 
	C683.512268,696.882263 684.024597,696.538025 684.844543,696.135864 
z"/>
<path fill="#EC5B0B" opacity="1.000000" stroke="none" 
	d="
M682.878540,697.158325 
	C682.675293,697.439514 682.159973,697.765625 681.321289,698.150391 
	C681.520813,697.873718 682.043640,697.538452 682.878540,697.158325 
z"/>
</svg>